Coordinates
version=1
nRows=12
nColumns=24
inDegrees=yes

Units are S.I. units (second, meters, Newtons, ...)
Angles are in degrees.

endheader
time	pelvis_tilt	pelvis_list	pelvis_rotation	pelvis_tx	pelvis_ty	pelvis_tz	hip_flexion_r	hip_adduction_r	hip_rotation_r	knee_angle_r	ankle_angle_r	subtalar_angle_r	mtp_angle_r	hip_flexion_l	hip_adduction_l	hip_rotation_l	knee_angle_l	ankle_angle_l	subtalar_angle_l	mtp_angle_l	lumbar_extension	lumbar_bending	lumbar_rotation
      3.42000000	     -7.18308522	     -2.75126142	      1.79656864	     -0.78177588	     -0.01213676	      0.63807319	      4.50235638	      3.36811905	      8.07904753	    -16.27334914	      8.94952267	     -5.97141961	      7.48455120	     39.33557625	     -3.32708104	     -3.06465203	    -58.76146751	     -8.61139462	     -2.27481065	     11.04132068	      4.91372012	      8.76276037	      0.15300983
      3.42500000	     -7.30479100	     -2.66796892	      1.69548826	     -0.77498164	     -0.01280890	      0.63829553	      3.94760775	      3.27802180	      8.15650377	    -15.79192573	      9.08671330	     -6.04840802	      7.41253943	     39.81979333	     -3.29055852	     -2.98220812	    -57.45225869	     -8.37774462	     -2.29128423	     10.81373969	      4.99367004	      8.60673524	      0.32470812
      3.43000000	     -7.12564108	     -2.52359916	      1.47005986	     -0.76825567	     -0.01311598	      0.63862334	      3.03862635	      3.14131602	      8.48106399	    -15.25354521	      9.18513068	     -6.19958576	      7.07289511	     39.89655415	     -3.30150182	     -3.10206536	    -56.05936765	     -7.93239794	     -2.43179886	      9.73233135	      4.69273483	      8.42412286	      0.64845573
      3.43500000	     -7.06467797	     -2.38304187	      1.34006604	     -0.76139837	     -0.01364470	      0.63880946	      2.23830923	      2.98290522	      8.67999585	    -14.70670080	      9.35843472	     -6.27233798	      6.63827773	     40.08418586	     -3.23289916	     -3.10828084	    -54.64870533	     -7.27772599	     -2.42893360	      8.07481872	      4.56511672	      8.22146638	      0.82257118
      3.44000000	     -7.05221806	     -2.27844958	      1.18886545	     -0.75455662	     -0.01428796	      0.63901776	      1.49652465	      2.85114778	      8.82517326	    -14.15563795	      9.51334251	     -6.27406277	      6.36802024	     40.29093952	     -3.21309631	     -3.09170699	    -53.17095060	     -6.69027446	     -2.39485150	      6.69735302	      4.48386960	      8.05787322	      1.00913912
      3.44500000	     -7.21089365	     -2.24871866	      1.08914365	     -0.74771626	     -0.01520713	      0.63916056	      0.94415967	      2.78685774	      8.87232584	    -13.60350785	      9.61889150	     -6.27905042	      6.31024026	     40.66279109	     -3.21664166	     -2.91966047	    -51.60398236	     -6.43155707	     -2.34095801	      6.44056159	      4.60243598	      7.96585614	      1.11749436
      3.45000000	     -7.08203970	     -2.11988107	      0.94368372	     -0.74082822	     -0.01578672	      0.63927228	      0.04218985	      2.60659988	      9.02053017	    -13.00240498	      9.79747985	     -6.16993561	      5.85207456	     40.67231419	     -3.16611433	     -2.95220471	    -50.08880614	     -5.21721620	     -2.20050589	      3.06047883	      4.39202644	      7.77892004	      1.28206828
      3.45500000	     -7.02753613	     -1.98502070	      0.80283439	     -0.73396527	     -0.01645618	      0.63948627	     -0.77312821	      2.42033627	      9.11053946	    -12.38654759	      9.83796092	     -6.18154842	      5.80456640	     40.68243464	     -3.12145006	     -2.92866907	    -48.33930354	     -4.96714735	     -2.29187965	      2.53635310	      4.25686669	      7.57088652	      1.47788990
      3.46000000	     -6.95854023	     -1.87301134	      0.67670045	     -0.72702949	     -0.01721452	      0.63961460	     -1.60474701	      2.23885323	      9.06898454	    -11.77884539	      9.95538709	     -5.97790006	      5.72952254	     40.67513847	     -3.08524896	     -2.89272098	    -46.69322982	     -3.85497037	     -1.97834853	     -0.08433657	      4.11794997	      7.38989443	      1.64071493
      3.46500000	     -6.96411954	     -1.71168499	      0.54190441	     -0.72012326	     -0.01803268	      0.63974649	     -2.35689123	      2.00383334	      9.18029674	    -11.17052225	     10.00794295	     -5.92272231	      5.70948354	     40.67425337	     -2.99803315	     -2.87712371	    -44.84604337	     -3.59947439	     -2.13912494	     -0.79150932	      4.05126344	      7.15546071	      1.80110887
      3.47000000	     -6.94093752	     -1.57412182	      0.49494282	     -0.71308631	     -0.01895459	      0.63966277	     -3.14058169	      1.76893273	      8.96689291	    -10.57284343	     10.13630148	     -5.55428355	      5.84136857	     40.66261392	     -2.85853273	     -2.77141809	    -43.17160847	     -2.13535826	     -1.76516686	     -4.50401856	      3.98515939	      6.94461936	      1.85202893
      3.47500000	     -6.94737260	     -1.38909953	      0.25739022	     -0.70611151	     -0.01988540	      0.63997953	     -3.85278428	      1.50131956	      9.11517619	    -10.03417505	     10.21415483	     -5.39897310	      5.87593675	     40.58385102	     -2.84876536	     -2.88911396	    -41.28286409	     -1.75569167	     -1.68277464	     -4.98085914	      3.91277878	      6.68225249	      2.13991533
